<svg width="162" height="26" viewBox="0 0 162 26" fill="none" xmlns="http://www.w3.org/2000/svg">
<path d="M12.3987 2.92042C12.7086 2.02115 13.9805 2.02148 14.2898 2.92092L16.4122 9.09163C16.5485 9.48811 16.9178 9.75742 17.3369 9.76617L23.8307 9.90164C24.7761 9.92137 25.1685 11.121 24.4174 11.6956L19.2303 15.6644C18.9002 15.9169 18.7607 16.3473 18.8799 16.7454L20.7611 23.0278C21.0333 23.9369 20.0046 24.6785 19.2281 24.1327L13.9198 20.4018C13.5749 20.1593 13.115 20.1593 12.77 20.4016L7.45762 24.1329C6.68091 24.6785 5.65228 23.9364 5.92503 23.0273L7.80952 16.7459C7.92904 16.3475 7.78949 15.9168 7.45908 15.6642L2.26876 11.6958C1.51738 11.1213 1.90965 9.92134 2.85529 9.90161L9.34784 9.76616C9.76683 9.75742 10.1359 9.48834 10.2724 9.09211L12.3987 2.92042Z" fill="black"/>
<path d="M45.677 2.92091C45.9868 2.02164 47.2588 2.02198 47.5681 2.92141L49.6905 9.09211C49.8268 9.4886 50.196 9.75791 50.6152 9.76666L57.1089 9.90213C58.0544 9.92186 58.4468 11.1215 57.6957 11.6961L52.5085 15.6648C52.1785 15.9174 52.039 16.3478 52.1582 16.7459L54.0394 23.0282C54.3116 23.9374 53.2828 24.679 52.5064 24.1332L47.1981 20.4023C46.8532 20.1598 46.3933 20.1598 46.0483 20.4021L40.7359 24.1334C39.9592 24.679 38.9306 23.9369 39.2033 23.0277L41.0878 16.7464C41.2073 16.348 41.0678 15.9173 40.7374 15.6646L35.5471 11.6963C34.7957 11.1218 35.188 9.92183 36.1336 9.9021L42.6261 9.76665C43.0451 9.75791 43.4142 9.48883 43.5507 9.0926L45.677 2.92091Z" fill="black"/>
<path d="M79.7934 2.76073C80.1126 1.88283 81.3543 1.88317 81.6731 2.76125L83.977 9.10711C84.118 9.49575 84.4838 9.75749 84.8972 9.76566L91.8322 9.90273C92.7913 9.92168 93.176 11.1492 92.3993 11.7122L86.9513 15.6611C86.6026 15.9139 86.4549 16.3615 86.5847 16.7722L88.58 23.085C88.8645 23.9851 87.858 24.7419 87.0722 24.2187L81.288 20.3672C80.9524 20.1437 80.5154 20.1436 80.1798 20.367L74.3911 24.2188C73.6051 24.7419 72.5988 23.9845 72.8838 23.0844L74.8826 16.7727C75.0128 16.3618 74.865 15.9138 74.5159 15.6609L69.0646 11.7124C68.2876 11.1496 68.6722 9.92165 69.6314 9.90269L76.5652 9.76565C76.9784 9.75749 77.344 9.49599 77.4852 9.10761L79.7934 2.76073Z" fill="black"/>
<path d="M113.897 2.92091C114.207 2.02164 115.479 2.02198 115.789 2.92141L117.911 9.09211C118.047 9.4886 118.416 9.75791 118.836 9.76666L125.329 9.90213C126.275 9.92186 126.667 11.1215 125.916 11.6961L120.729 15.6648C120.399 15.9174 120.259 16.3478 120.379 16.7459L122.26 23.0282C122.532 23.9374 121.503 24.679 120.727 24.1332L115.419 20.4023C115.074 20.1598 114.614 20.1598 114.269 20.4021L108.956 24.1334C108.18 24.679 107.151 23.9369 107.424 23.0277L109.308 16.7464C109.428 16.348 109.288 15.9173 108.958 15.6646L103.768 11.6963C103.016 11.1218 103.408 9.92183 104.354 9.9021L110.847 9.76665C111.266 9.75791 111.635 9.48883 111.771 9.0926L113.897 2.92091Z" fill="black"/>
<path d="M147.173 2.92043C147.482 2.02116 148.754 2.02149 149.064 2.92092L151.186 9.09163C151.322 9.48811 151.692 9.75742 152.111 9.76617L158.604 9.90164C159.55 9.92137 159.942 11.121 159.191 11.6956L154.004 15.6644C153.674 15.9169 153.534 16.3473 153.654 16.7454L155.535 23.0278C155.807 23.9369 154.778 24.6785 154.002 24.1327L148.694 20.4018C148.349 20.1593 147.889 20.1593 147.544 20.4016L142.231 24.1329C141.455 24.6785 140.426 23.9364 140.699 23.0273L142.583 16.7459C142.703 16.3475 142.563 15.9168 142.233 15.6642L137.043 11.6958C136.291 11.1213 136.683 9.92134 137.629 9.90161L144.122 9.76616C144.541 9.75742 144.91 9.48834 145.046 9.09211L147.173 2.92043Z" fill="black"/>
</svg>
